<?xml version="1.0" encoding="utf-8"?>
<!-- Generator: Adobe Illustrator 19.2.1, SVG Export Plug-In . SVG Version: 6.00 Build 0)  -->
<svg version="1.1" id="Layer_1" xmlns="http://www.w3.org/2000/svg" xmlns:xlink="http://www.w3.org/1999/xlink" x="0px" y="0px"
	 width="93px" height="25.1px" viewBox="0 0 93 25.1" style="enable-background:new 0 0 93 25.1;" xml:space="preserve">
<style type="text/css">
	.st0{fill:#CAC8C8;}
	.st1{fill:#FD4F57;}
	.st2{fill:#2E2A25;}
</style>
<g>
	<g>
		<path class="st0" d="M81.5,12.6c0-3.5,2.2-5.7,5.8-5.7c3.6,0,5.8,2.1,5.8,5.6c0,3.5-2.2,5.7-5.8,5.7
			C83.5,18.2,81.5,16.1,81.5,12.6z M89.2,12.6c0-3.2-0.5-4.5-2.1-4.5c-1.6,0-1.9,1.3-1.9,4.5c0,3.2,0.5,4.6,2.1,4.6
			C88.9,17.1,89.2,15.8,89.2,12.6z"/>
		<path class="st0" d="M71.7,16.2v-1.5l0-4.2c0-2.2-0.8-3.5-2.9-3.5c-1.5,0-2.9,0.9-4,1.9V7.2l-4.7,0.3v1c0.9,0.1,1.1,0.5,1.1,1.1
			l0,6.7c0,0.6-0.3,0.8-1.1,0.8v1h5.9v-1c-0.8,0-1.1-0.3-1.1-0.8V9.8c0.6-0.3,1.2-0.6,1.9-0.6c1,0,1.4,0.7,1.4,1.8l0,5.1
			c0,0.6-0.3,0.8-1.1,0.8v1h5.9v-1C72.1,17,71.7,16.8,71.7,16.2z"/>
		<path class="st0" d="M58.1,16.2V9.8V9V7.2l-4.7,0.3v1c0.9,0.1,1.1,0.5,1.1,1.1l0,6.7c0,0.6-0.3,0.8-1.1,0.8v1h5.9v-1
			C58.4,17,58.1,16.8,58.1,16.2z"/>
		<path class="st0" d="M80.2,1.6c-1.8,0-3.1,0.4-3.9,1.3C75.4,3.8,75,5.1,75,6.8v0.6l-2,0.4v1.1h2l0,7.4c0,0.6-0.3,0.8-1.1,0.8v1
			h5.9v-1c-0.8,0-1.1-0.3-1.1-0.8V8.8h2.9V7.4h-2.9V5.8c0-1.5,0.2-2.4,0.6-2.8c0.3-0.3,0.5-0.3,0.8-0.3c0.2,0,0.4,0,0.6,0.1
			c-0.1,0.3-0.2,0.9-0.2,1.2c0,1.3,0.7,1.9,1.8,1.9C83.3,5.8,84,5,84,4C84,2.7,82.7,1.6,80.2,1.6z"/>
	</g>
	<g>
		<polygon class="st1" points="47.3,3.6 47.3,21.6 3.6,21.6 3.6,3.6 10.8,3.6 10.8,0 0,0 0,25.1 50.9,25.1 50.9,0 18,0 18,3.6 		"/>
	</g>
	<g>
		<g>
			<g>
				<path class="st2" d="M31.6,16.2v-1.5l0-4.2c0-2.2-0.8-3.5-2.9-3.5c-1.5,0-2.9,0.9-4,1.9V7.2l-4.7,0.3v1c0.9,0.1,1.1,0.5,1.1,1.1
					l0,6.7c0,0.6-0.3,0.8-1.1,0.8v1h5.9v-1c-0.8,0-1.1-0.3-1.1-0.8V9.8c0.6-0.3,1.2-0.6,1.9-0.6c1,0,1.4,0.7,1.4,1.8l0,5.1
					c0,0.6-0.3,0.8-1.1,0.8v1h5.9v-1C32,17,31.6,16.8,31.6,16.2z"/>
			</g>
			<path class="st2" d="M43.8,16.2l0-0.8v-4.2c0-2.7-1.2-4.1-4.3-4.1c-3.5,0-5.4,1-5.4,2.5c0,1,0.7,1.7,1.9,1.7c1.2,0,2-0.7,2-1.8
				c0-0.5-0.2-0.9-0.3-1.2c0.2-0.1,0.6-0.1,0.9-0.1c1.1,0,1.8,0.5,1.8,2.1v1.4c-1,0.3-3.6,0.2-5.2,1.1c-1,0.5-1.5,1.6-1.5,2.5
				c0,1.4,1,2.9,3.3,2.9c1.3,0,2.5-0.6,3.5-1.5h0.1c0.4,0.8,0.7,1.3,2,1.3h2.4v-1C44.1,17,43.8,16.8,43.8,16.2z M40.3,15.7
				c-0.3,0.4-0.8,0.8-1.4,0.8c-0.9,0-1.5-0.7-1.5-1.7c0-1.3,0.9-1.8,2.9-2V15.7z"/>
		</g>
		<path class="st2" d="M18,0l-3.6,3.6v3.8C13.7,7.2,13.1,7,12.2,7c-3.6,0-5.5,2.8-5.5,5.8c0,3.2,1.7,5.3,4.7,5.3
			c1.3,0,2.3-0.6,3-1.5V18h4.7v-1c-0.8,0-1.1-0.3-1.1-0.8V16v-1.2V3.6L18,0L18,0z M12.7,16.3c-1.3,0-2.3-1.5-2.3-3.9
			c0-2.9,0.8-4.2,2.1-4.2c0.8,0,1.5,0.5,1.8,1.1l0,6.4C13.9,16.1,13.5,16.3,12.7,16.3z"/>
	</g>
</g>
</svg>
